<svg width="55" height="42" viewBox="0 0 55 42" fill="none" xmlns="http://www.w3.org/2000/svg">
<path d="M53.5029 1C53.7586 4.42281 52.44 12.1539 45.3583 16.3242C48.3484 16.1275 49.0574 16.1858 50.454 15.8711C48.9984 16.835 46.8342 18.4676 44.7294 18.3496C46.4998 19.825 47.5423 20.9665 48.998 21.2812C45.3596 21.3402 43.9431 20.652 43.3134 20.4551C44.7291 22.0478 44.7294 22.638 45.3583 23.0117C43.3129 22.8739 41.464 21.7337 40.3232 21.2812C40.575 22.6661 41.6214 24.1143 42.1132 24.665C41.0247 23.9634 38.7213 22.5596 38.2177 22.5596C37.5888 22.559 32.7639 21.3108 30.1611 26.458C30.1496 26.8482 30.1474 27.2053 30.1532 27.5176C30.2123 30.6453 30.9793 34.2061 31.2743 34.6191C31.5633 35.0255 30.7907 36.7961 30.4462 37.5859L30.4286 37.6289C30.2562 38.0232 29.4062 35.6834 29.2089 35.6807C29.0122 35.6807 27.6943 40.0089 27.6943 40.8154C27.2852 38.7228 26.6448 36.7179 26.3759 35.9766C25.9353 36.3073 25.3921 37.7268 25.1757 38.3955C24.8543 37.9691 24.1216 36.7466 23.7597 35.2676C23.4456 33.9827 23.9571 29.4906 24.2988 26.3262C21.6801 21.3333 16.9352 22.5596 16.3134 22.5596C15.8089 22.5604 13.507 23.9636 12.4189 24.665C12.9106 24.1143 13.9571 22.6661 14.2089 21.2812C13.068 21.7337 11.2185 22.874 9.17278 23.0117C9.80223 22.638 9.80254 22.0483 11.2187 20.4551C10.5891 20.6519 9.1726 21.3402 5.53411 21.2812C6.98972 20.9665 8.03229 19.8249 9.80266 18.3496C7.69783 18.4676 5.53373 16.835 4.07805 15.8711C5.47466 16.1858 6.18302 16.1275 9.17278 16.3242C2.09123 12.1539 0.773498 4.42278 1.02922 1C1.10786 1.07863 0.663247 0.516571 4.07805 4.79688C4.32943 5.11196 4.61241 5.42969 4.9218 5.75C5.81598 6.48906 7.01305 7.3725 8.50481 8.29883C10.2068 9.35548 10.1764 7.88404 9.87102 6.69043C9.76467 6.42909 9.72454 6.26868 9.72454 6.19336C9.77637 6.34719 9.82638 6.51598 9.87102 6.69043C10.1073 7.27092 10.6682 8.3509 11.829 10.1084C13.9336 13.2945 19.8923 14.4358 20.5234 14.4951C21.027 14.5423 20.7332 13.1109 20.5234 12.3896C21.1719 12.9444 22.3787 14.1218 23.662 15.6738C24.1504 14.5889 24.9032 13.0177 25.3534 12.5674C26.0591 11.8618 24.2842 13.0112 24.2714 13.0195C24.4616 12.7179 24.9443 12.0079 25.3534 11.583C25.8648 11.052 26.5144 10.4429 27.9501 11.0723C28.9258 10.1595 30.3762 10.0753 30.9794 10.1475C29.0123 11.8392 29.307 13.0195 29.1103 13.5703C28.9957 13.8912 29.0132 14.0786 29.0566 14.1719L29.1103 14.2393C29.0925 14.2286 29.0727 14.2066 29.0566 14.1719L28.7958 13.8457L29.1103 15.3018L28.7958 14.9668C28.9153 15.385 29.1545 16.1403 29.3837 16.6797L29.9179 16.8789C31.5257 14.7346 33.2012 13.0804 34.0087 12.3896C33.7989 13.1109 33.5051 14.5423 34.0087 14.4951C34.6405 14.4356 40.5986 13.2943 42.7031 10.1084C43.8639 8.3509 44.4248 7.27092 44.6611 6.69043C44.7057 6.51599 44.7557 6.34718 44.8075 6.19336C44.8075 6.26868 44.7674 6.42912 44.6611 6.69043C44.3557 7.88407 44.3252 9.35561 46.0273 8.29883C47.5205 7.37157 48.7178 6.48658 49.6122 5.74707C49.9207 5.4276 50.2033 5.11114 50.454 4.79688C53.869 0.516398 53.4242 1.07868 53.5029 1Z" fill="black"/>
</svg>
